<!DOCTYPE svg PUBLIC "-//W3C//DTD SVG 1.1//EN" "http://www.w3.org/Graphics/SVG/1.1/DTD/svg11.dtd">
<!-- Uploaded to: SVG Repo, www.svgrepo.com, Transformed by: SVG Repo Mixer Tools -->
<svg fill="#8274ff" height="236px" width="236px" version="1.1" id="Capa_1" xmlns="http://www.w3.org/2000/svg" xmlns:xlink="http://www.w3.org/1999/xlink" viewBox="-11.52 -11.52 54.18 54.18" xml:space="preserve" stroke="#8274ff" stroke-width="0.00031143">
<g id="SVGRepo_bgCarrier" stroke-width="0">
<rect x="-11.52" y="-11.52" width="54.18" height="54.18" rx="27.09" fill="#fafafa" strokewidth="0"/>
</g>
<g id="SVGRepo_tracerCarrier" stroke-linecap="round" stroke-linejoin="round"/>
<g id="SVGRepo_iconCarrier"> <g> <g id="c100_arrow"> <path d="M0,15.571c0.001,1.702,1.383,3.081,3.085,3.083l17.528-0.002l-4.738,4.739c-1.283,1.284-1.349,3.301-0.145,4.507 c1.205,1.201,3.222,1.138,4.507-0.146l9.896-9.898c1.287-1.283,1.352-3.301,0.146-4.506c-0.033-0.029-0.068-0.051-0.1-0.08 c-0.041-0.043-0.07-0.094-0.113-0.139l-9.764-9.762c-1.268-1.266-3.27-1.316-4.474-0.111c-1.205,1.205-1.153,3.208,0.111,4.476 l4.755,4.754H3.085C1.381,12.485,0,13.865,0,15.571z"/> </g> <g id="Capa_1_46_"> </g> </g> </g>
</svg>